# AST/ASF file generated using VICON BodyLanguage
# -----------------------------------------------
:version 1.10
:name VICON
:units
  mass 1.0
  length 0.45
  angle deg
:documentation
   .ast/.asf automatically generated from VICON data using
   VICON BodyBuilder and BodyLanguage model FoxedUp or BRILLIANT.MOD
:root
   order TX TY TZ RX RY RZ
   axis XYZ
   position 0 0 0  
   orientation 0 0 0 
:bonedata
  begin
     id 1 
     name lhipjoint
     direction 0.714689 -0.624256 0.315473 
     length 2.45343 
     axis 0 0 0  XYZ
  end
  begin
     id 2 
     name lfemur
     direction 0.34202 -0.939693 0  
     length 6.59069  
     axis 0 0 20  XYZ
    dof rx ry rz
    limits (-160.0 20.0)
           (-70.0 70.0)
           (-60.0 70.0)
  end
  begin
     id 3 
     name ltibia
     direction 0.34202 -0.939693 0   
     length 6.73476   
     axis 0 0 20   XYZ
    dof rx
    limits (-10.0 170.0)
  end
  begin
     id 4 
     name lfoot
     direction 0.0718085 -0.197292 0.977711   
     length 1.52607   
     axis -90 7.62852e-016 20   XYZ
    dof rx rz
    limits (-45.0 90.0)
           (-70.0 20.0)
  end
  begin
     id 5 
     name ltoes
     direction 1.53553e-011 -4.22024e-011 1   
     length 0.777832   
     axis -90 7.62852e-016 20   XYZ
    dof rx
    limits (-90.0 20.0)
  end
  begin
     id 6 
     name rhipjoint
     direction -0.727419 -0.612432 0.309497   
     length 2.50079  
     axis 0 0 0  XYZ 
  end
  begin
     id 7 
     name rfemur
     direction -0.34202 -0.939693 0   
     length 6.51665   
     axis 0 0 -20   XYZ
    dof rx ry rz
    limits (-160.0 20.0)
           (-70.0 70.0)
           (-70.0 60.0)
  end
  begin
     id 8 
     name rtibia
     direction -0.34202 -0.939693 0   
     length 6.48919   
     axis 0 0 -20   XYZ
    dof rx
    limits (-10.0 170.0)
 end
 begin
     id 9 
     name rfoot
     direction -0.112205 -0.308282 0.944655   
     length 1.68717  
     axis -90 -7.62852e-016 -20   XYZ
    dof rx rz
    limits (-45.0 90.0)
           (-20.0 70.0)
  end
  begin
     id 10 
     name rtoes
     direction -1.53583e-011 -4.21993e-011 1   
     length 0.846859   
     axis -90 -7.62852e-016 -20   XYZ
    dof rx
    limits (-90.0 20.0)
  end
  begin
     id 11 
     name lowerback
     direction -0.00119603 0.996364 -0.0851956   
     length 1.67242   
     axis 0 0 0   XYZ
    dof rx ry rz
    limits (-20.0 45.0)
           (-30.0 30.0)
           (-30.0 30.0)
  end
  begin
     id 12 
     name upperback
     direction -0.00531001 0.998318 0.0577248   
     length 1.64819   
     axis 0 0 0   XYZ
    dof rx ry rz
    limits (-20.0 45.0)
           (-30.0 30.0)
           (-30.0 30.0)
  end
  begin
     id 13 
     name thorax
     direction -0.00653676 0.995132 0.0983291   
     length 1.67429   
     axis 0 0 0   XYZ
    dof rx ry rz
    limits (-20.0 45.0)
           (-30.0 30.0)
           (-30.0 30.0)
  end
  begin
     id 14 
     name lowerneck
     direction 0.0141424 0.999886 0.00525412   
     length 1.59623   
     axis 0 0 0   XYZ
    dof rx ry rz
    limits (-20.0 45.0)
           (-30.0 30.0)
           (-30.0 30.0)
  end
  begin
     id 15 
     name upperneck
     direction -0.0640064 0.987178 -0.146232   
     length 1.59576   
     axis 0 0 0   XYZ
    dof rx ry rz
    limits (-20.0 45.0)
           (-30.0 30.0)
           (-30.0 30.0)
  end
  begin
     id 16
     name head
     direction -0.0222942 0.998496 -0.0500859  
     length 1.60959  
     axis 0 0 0   XYZ
    dof rx ry rz
    limits (-20.0 45.0)
           (-30.0 30.0)
           (-30.0 30.0)
  end
  begin
     id 17 
     name lclavicle
     direction 0.908549 0.392612 0.142806  
     length 2.80649  
     axis 0 0 0   XYZ
    dof ry rz
    limits (-20.0 10.0)
           (0.0 20.0)
  end
  begin
     id 18 
     name lhumerus
     direction 1 -4.48968e-011 1.08832e-028   
     length 4.2884   
     axis -180 -30 -90   XYZ
    dof rx ry rz
    limits (-60.0 90.0)
           (-90.0 90.0)
           (-90.0 90.0)
  end
  begin
     id 19
     name lradius
     direction 1 -4.48952e-011 -3.02642e-028   
     length 3.06552   
     axis -180 -30 -90   XYZ
    dof rx
    limits (-10.0 170.0)
  end
  begin
     id 20
     name lwrist
     direction 1 -4.49014e-011 1.58672e-027   
     length 1.53276   
     axis -1.65735e-015 90 90   XYZ
    dof ry
    limits (-180.0 0.0)
 end
  begin
     id 21 
     name lhand
     direction 1 -4.48928e-011 3.17344e-027   
     length 0.753045   
     axis -2.02492e-015 90 90   XYZ
    dof rx rz
    limits (-90.0 90.0)
           (-45.0 45.0)
  end
  begin
     id 22 
     name lfingers
     direction 1 -4.48958e-011 6.34687e-027   
     length 0.607124   
     axis -4.04985e-015 90 90   XYZ
    dof rx
    limits (0.0 90.0)
  end
  begin
     id 23
     name lthumb
     direction 0.707107 -6.34905e-011 0.707107   
     length 0.871712   
     axis -90 45 2.85299e-015   XYZ
    dof rx rz
    limits (-45.0 45.0)
           (-45.0 45.0)
  end
  begin
     id 24 
     name rclavicle
     direction -0.885098 0.45949 0.0739604   
     length 2.9478  
     axis 0 0 0   XYZ 
    dof ry rz
    limits (-10.0 20.0)
           (-20.0 0.0)
  end
  begin
     id 25 
     name rhumerus
     direction -1 -4.4898e-011 -2.61739e-027  
     length 4.52172   
     axis -180 30 90   XYZ
    dof rx ry rz
    limits (-90.0 60.0)
           (-90.0 90.0)
           (-90.0 90.0)
  end
  begin
     id 26 
     name rradius
     direction -1 -4.48945e-011 9.02552e-028   
     length 2.8914   
     axis -180 30 90   XYZ
    dof rx
    limits (-10.0 170.0)
  end
  begin
     id 27 
     name rwrist
     direction -1 -4.49018e-011 1.58672e-027   
     length 1.4457   
     axis -1.65735e-015 -90 -90   XYZ
    dof ry
    limits (-180.0 0.0)
  end
  begin
     id 28
     name rhand
     direction -1 -4.48825e-011 3.17344e-027   
     length 0.680541   
     axis -2.02492e-015 -90 -90   XYZ
    dof rx rz
    limits (-90.0 90.0)
           (-45.0 45.0)
  end
  begin
     id 29
     name rfingers
     direction -1 -4.49067e-011 6.34687e-027   
     length 0.54867   
     axis -4.04985e-015 -90 -90   XYZ
    dof rx
    limits (0.0 90.0)
  end
  begin
     id 30
     name rthumb
     direction -0.707107 -6.34833e-011 0.707107   
     length 0.787783   
     axis -90 -45 -2.85299e-015   XYZ
    dof rx rz
    limits (-45.0 45.0)
           (-45.0 45.0)
  end
:hierarchy
  begin
    root lhipjoint rhipjoint lowerback
    lhipjoint lfemur
    lfemur ltibia
    ltibia lfoot
    lfoot ltoes
    rhipjoint rfemur
    rfemur rtibia
    rtibia rfoot
    rfoot rtoes
    lowerback upperback
    upperback thorax
    thorax lowerneck lclavicle rclavicle
    lowerneck upperneck
    upperneck head
    lclavicle lhumerus
    lhumerus lradius
    lradius lwrist
    lwrist lhand lthumb
    lhand lfingers
    rclavicle rhumerus
    rhumerus rradius
    rradius rwrist
    rwrist rhand rthumb
    rhand rfingers
  end

#!OML:ASF E:\emotionWalksFemale\Project 1\Capture day 1\Session 1\Female1.ASF
:FULLY-SPECIFIED
:DEGREES
81
root 8.84792 14.7434 22.8019 197.409 -4.19106 -178.156
lowerback 24.0316 0.981847 2.646
upperback -1.00551 1.95961 0.37122
thorax -14.6443 0.628197 -1.7793
lowerneck -7.36963 -4.44675 -9.37186
upperneck -16.3045 -6.15384 10.675
head -3.00739 -3.68171 4.8822
rclavicle 4.27387e-015 -1.39149e-014
rhumerus -56.8743 46.1972 -29.0677
rradius 52.3076
rwrist 12.2898
rhand 5.03102 -48.4283
rfingers 7.12502
rthumb 30.3996 -75.9425
lclavicle 4.27387e-015 -1.39149e-014
lhumerus -48.9067 -1.05367 -13.4301
lradius 41.3099
lwrist 4.11041
lhand -7.47267 -32.0728
lfingers 7.12502
lthumb 18.4162 -2.92451
rfemur -39.8312 4.18593 25.6958
rtibia 47.856
rfoot -25.496 -23.9592
rtoes -1.66214
lfemur -45.4828 -4.1368 -17.2449
ltibia 52.4059
lfoot -30.6035 4.16863
ltoes -41.5593
82
root 8.85379 14.6845 22.8002 198.087 -4.31749 -178.162
lowerback 24.3934 0.973855 2.73395
upperback -1.15838 1.99623 0.362771
thorax -15.0308 0.629251 -1.86527
lowerneck -7.38683 -4.50031 -9.39252
upperneck -16.3394 -6.21939 10.7318
head -3.00529 -3.71755 4.90266
rclavicle 1.73937e-014 -8.15017e-015
rhumerus -57.694 45.4392 -29.1319
rradius 51.0205
rwrist 13.0139
rhand 6.90801 -48.5013
rfingers 7.12502
rthumb 32.1881 -75.6693
lclavicle 1.73937e-014 -8.15017e-015
lhumerus -49.8235 -0.721471 -14.3071
lradius 40.866
lwrist 4.0251
lhand -9.48781 -32.3311
lfingers 7.12502
lthumb 16.4768 -3.01076
rfemur -41.2957 4.33233 25.6922
rtibia 49.2938
rfoot -26.2624 -23.955
rtoes -0.360947
lfemur -46.9171 -4.01837 -17.2249
ltibia 53.6288
lfoot -30.9586 4.29249
ltoes -41.8001
83
root 8.8557 14.6132 22.8033 198.991 -4.31299 -178.165
lowerback 24.2785 1.08933 2.70978
upperback -1.16001 2.14516 0.398612
thorax -14.9616 0.702076 -1.86093
lowerneck -7.48714 -4.53923 -9.52123
upperneck -16.6782 -6.28928 10.8111
head -3.07794 -3.77174 4.95818
rclavicle -1.39149e-015 -6.36111e-015
rhumerus -58.5388 44.1657 -29.1768
rradius 49.7795
rwrist 13.6883
rhand 5.82866 -48.2248
rfingers 7.12502
rthumb 31.16 -75.5957
lclavicle -1.39149e-015 -6.36111e-015
lhumerus -50.8372 0.105595 -14.9019
lradius 40.4421
lwrist 3.86621
lhand -11.0901 -32.0903
lfingers 7.12502
lthumb 14.9337 -2.64871
rfemur -43.1158 4.52682 25.6358
rtibia 50.7668
rfoot -26.7405 -23.9479
rtoes 0.591521
lfemur -48.67 -3.8374 -17.2366
ltibia 54.9336
lfoot -31.097 4.34451
ltoes -41.1009
84
root 8.85601 14.5347 22.8095 200.048 -4.19548 -178.102
lowerback 24.2104 1.22823 2.78976
upperback -1.33461 2.36478 0.368318
thorax -15.1171 0.792683 -2.02351
lowerneck -7.60859 -4.5209 -9.46969
upperneck -16.9576 -6.30309 10.698
head -3.15004 -3.79583 4.9226
rclavicle -3.57812e-014 -1.94809e-014
rhumerus -59.8594 42.7997 -29.6661
rradius 48.645
rwrist 14.5637
rhand 3.6399 -48.2343
rfingers 7.12502
rthumb 29.0719 -75.9857
lclavicle -3.57812e-014 -1.94809e-014
lhumerus -51.9311 0.795855 -15.406
lradius 40.1167
lwrist 3.54251
lhand -12.805 -31.806
lfingers 7.12502
lthumb 13.2811 -2.24916
rfemur -45.1904 4.88545 25.5751
rtibia 52.2769
rfoot -26.9007 -24.1452
rtoes 1.31842
lfemur -50.6653 -3.56964 -17.2076
ltibia 56.3369
lfoot -30.9892 4.16906
ltoes -39.9122
85
root 8.85956 14.467 22.809 200.86 -4.21062 -177.996
lowerback 24.1603 1.28471 2.97097
upperback -1.31901 2.48697 0.352536
thorax -15.0546 0.833062 -2.18747
lowerneck -7.63553 -4.43691 -9.29562
upperneck -17.4499 -6.26336 10.5482
head -3.31234 -3.81305 4.86852
rclavicle -1.19271e-015 -1.59028e-014
rhumerus -60.8757 41.2486 -30.1474
rradius 47.4608
rwrist 15.5521
rhand 1.85916 -48.6314
rfingers 7.12502
rthumb 27.3699 -76.664
lclavicle -1.19271e-015 -1.59028e-014
lhumerus -53.3769 1.60832 -15.8103
lradius 39.7973
lwrist 2.96436
lhand -14.6962 -31.9909
lfingers 7.12502
lthumb 11.4577 -2.32402
rfemur -46.8725 5.15739 25.6333
rtibia 53.7458
rfoot -27.3398 -24.4106
rtoes 2.22687
lfemur -52.3464 -3.35574 -17.109
ltibia 57.7383
lfoot -31.2195 3.99983
ltoes -39.0805
86
root 8.86372 14.3906 22.802 201.524 -4.44546 -177.909
lowerback 24.7314 1.20898 3.20618
upperback -1.50004 2.48586 0.336047
thorax -15.5937 0.795957 -2.36486
lowerneck -8.00926 -4.3847 -9.10674
upperneck -17.4271 -6.20599 10.5168
head -3.2597 -3.80044 4.81717
rclavicle 1.45113e-014 -1.03368e-014
rhumerus -61.9431 39.7639 -30.8225
rradius 46.2769
rwrist 16.6657
rhand 0.80869 -48.9177
rfingers 7.12502
rthumb 26.3647 -77.1049
lclavicle 1.45113e-014 -1.03368e-014
lhumerus -55.0364 1.84579 -16.0753
lradius 39.6527
lwrist 2.56745
lhand -16.0648 -32.1089
lfingers 7.12502
lthumb 10.1376 -2.37312
rfemur -48.3281 5.24126 25.7793
rtibia 55.216
rfoot -27.9572 -24.7193
rtoes 2.48743
lfemur -53.8977 -3.28797 -16.9857
ltibia 59.1667
lfoot -31.8845 3.97392
ltoes -38.9544
87
root 8.86704 14.3147 22.7942 202.281 -4.69816 -177.955
lowerback 24.8406 1.2224 3.33296
upperback -1.51344 2.54836 0.35365
thorax -15.6651 0.810981 -2.44418
lowerneck -7.99135 -4.33292 -9.05498
upperneck -17.931 -6.18969 10.5053
head -3.41989 -3.82823 4.82763
rclavicle 1.98785e-015 -2.38542e-015
rhumerus -62.9449 37.9758 -31.4355
rradius 45.0282
rwrist 17.4527
rhand 0.375513 -49.068
rfingers 7.12502
rthumb 25.95 -77.3166
lclavicle 1.98785e-015 -2.38542e-015
lhumerus -56.6563 2.3775 -15.932
lradius 39.4614
lwrist 2.18455
lhand -17.3014 -32.2588
lfingers 7.12502
lthumb 8.94448 -2.46836
rfemur -49.8958 5.33086 25.7691
rtibia 56.6789
rfoot -28.4859 -25.0948
rtoes 2.47234
lfemur -55.4922 -3.31624 -16.977
ltibia 60.5583
lfoot -32.556 3.95247
ltoes -39.1221
